<?xml version="1.0" encoding="utf-8"?>
<!-- Generator: Adobe Illustrator 15.0.0, SVG Export Plug-In . SVG Version: 6.00 Build 0)  -->
<!DOCTYPE svg PUBLIC "-//W3C//DTD SVG 1.1//EN" "http://www.w3.org/Graphics/SVG/1.1/DTD/svg11.dtd">
<svg version="1.1" id="Layer_1" xmlns="http://www.w3.org/2000/svg" xmlns:xlink="http://www.w3.org/1999/xlink" x="0px" y="0px"
	 width="366px" height="59px" viewBox="0 0 366 59" enable-background="new 0 0 366 59" xml:space="preserve">
<g enable-background="new    ">
	<path fill="#6D6E6E" d="M9.188,33.271c0.167,1.271,0.509,2.315,1.025,3.133c0.517,0.814,1.099,1.453,1.746,1.908
		s1.318,0.769,2.017,0.937c0.695,0.168,1.296,0.252,1.8,0.252c0.84,0,1.662-0.149,2.466-0.451c0.805-0.3,1.519-0.727,2.143-1.278
		c0.624-0.554,1.128-1.221,1.513-2c0.383-0.78,0.576-1.652,0.576-2.613c0-1.227-0.234-2.229-0.702-3.01
		c-0.469-0.781-1.051-1.406-1.746-1.875c-0.696-0.471-1.436-0.83-2.214-1.082c-0.78-0.252-1.494-0.463-2.143-0.631
		c-0.576-0.146-1.268-0.344-2.069-0.596c-0.805-0.252-1.572-0.619-2.305-1.1c-0.731-0.48-1.351-1.123-1.854-1.93
		c-0.504-0.807-0.756-1.832-0.756-3.082c-0.024-1.104,0.155-2.092,0.54-2.955c0.384-0.865,0.911-1.592,1.584-2.183
		c0.672-0.589,1.451-1.04,2.34-1.353c0.888-0.313,1.813-0.469,2.771-0.469c0.792,0,1.565,0.114,2.321,0.348
		c0.756,0.23,1.446,0.597,2.07,1.098s1.156,1.143,1.602,1.921c0.444,0.78,0.738,1.712,0.883,2.79h-1.08
		c-0.097-0.525-0.258-1.098-0.485-1.71c-0.229-0.61-0.559-1.176-0.99-1.69c-0.432-0.518-1.002-0.947-1.71-1.297
		c-0.708-0.349-1.603-0.521-2.682-0.521c-0.841,0-1.633,0.138-2.376,0.414c-0.744,0.276-1.394,0.667-1.944,1.172
		s-0.983,1.118-1.296,1.839c-0.313,0.723-0.468,1.516-0.468,2.379c0,1.06,0.197,1.93,0.594,2.614
		c0.396,0.687,0.93,1.255,1.603,1.712c0.671,0.457,1.439,0.823,2.305,1.1c0.864,0.277,1.752,0.535,2.664,0.774
		c0.216,0.072,0.526,0.156,0.936,0.253c0.409,0.098,0.858,0.252,1.351,0.471c0.491,0.215,0.996,0.484,1.513,0.811
		c0.516,0.326,0.983,0.738,1.403,1.244c0.419,0.504,0.763,1.117,1.025,1.838c0.265,0.722,0.396,1.563,0.396,2.523
		c0,1.104-0.216,2.113-0.647,3.026c-0.432,0.914-1.008,1.7-1.729,2.361c-0.721,0.659-1.548,1.171-2.483,1.532
		c-0.937,0.357-1.896,0.539-2.88,0.539c-0.792,0-1.626-0.134-2.502-0.397c-0.876-0.265-1.681-0.69-2.412-1.277
		c-0.731-0.586-1.355-1.329-1.872-2.229c-0.518-0.899-0.822-1.985-0.918-3.259L9.188,33.271L9.188,33.271z"/>
	<path fill="#6D6E6E" d="M28.95,16.604h-1.008v-3.274h1.008V16.604z M28.95,39.967h-1.008V20.889h1.008V39.967z"/>
	<path fill="#6D6E6E" d="M35.574,39.967h-1.008v-26.64h1.008V39.967z"/>
	<path fill="#6D6E6E" d="M38.491,20.889h1.044l7.452,17.892l7.345-17.892h1.151l-7.849,19.078h-1.296L38.491,20.889z"/>
	<path fill="#6D6E6E" d="M59.479,16.604H58.47v-3.274h1.009V16.604z M59.479,39.967H58.47V20.889h1.009V39.967z"/>
	<path fill="#6D6E6E" d="M83.741,39.967h-1.008v-4.752h-0.072c-0.84,1.635-2.016,2.91-3.527,3.834
		c-1.513,0.926-3.289,1.387-5.327,1.387c-1.563,0-2.965-0.281-4.213-0.847c-1.249-0.563-2.304-1.308-3.168-2.231
		c-0.863-0.922-1.523-1.984-1.979-3.187c-0.457-1.198-0.685-2.446-0.685-3.744c0-1.317,0.233-2.577,0.702-3.778
		c0.469-1.199,1.14-2.264,2.017-3.188c0.876-0.924,1.932-1.662,3.168-2.214c1.235-0.552,2.622-0.828,4.158-0.828
		c1.151,0,2.22,0.162,3.203,0.486c0.983,0.323,1.854,0.737,2.609,1.241c0.757,0.504,1.393,1.072,1.908,1.709
		c0.517,0.638,0.895,1.268,1.134,1.892h0.072v-4.858h1.008V39.967z M73.913,39.499c1.32,0,2.526-0.24,3.618-0.722
		c1.093-0.479,2.034-1.133,2.826-1.961c0.792-0.827,1.403-1.793,1.836-2.897s0.647-2.269,0.647-3.492
		c0-1.296-0.233-2.502-0.701-3.616c-0.469-1.117-1.104-2.076-1.908-2.881c-0.805-0.805-1.758-1.435-2.862-1.891
		c-1.104-0.456-2.292-0.686-3.563-0.686c-1.248,0-2.418,0.224-3.511,0.666c-1.093,0.443-2.046,1.063-2.861,1.854
		c-0.816,0.791-1.465,1.746-1.944,2.86c-0.479,1.117-0.72,2.348-0.72,3.689c0,1.08,0.191,2.16,0.575,3.24
		c0.385,1.08,0.954,2.052,1.711,2.916c0.756,0.863,1.703,1.564,2.844,2.105C71.038,39.23,72.377,39.499,73.913,39.499z"/>
	<path fill="#6D6E6E" d="M99.293,13.328h7.523c2.088,0,3.966,0.3,5.634,0.898c1.667,0.602,3.078,1.472,4.23,2.609
		c1.151,1.141,2.033,2.538,2.646,4.194c0.612,1.655,0.918,3.526,0.918,5.614s-0.306,3.961-0.918,5.615
		c-0.611,1.656-1.493,3.057-2.646,4.194c-1.152,1.142-2.563,2.01-4.23,2.608c-1.668,0.602-3.546,0.899-5.634,0.899h-7.523V13.328z
		 M100.373,39.032h6.443c1.92,0,3.643-0.277,5.166-0.831c1.523-0.553,2.819-1.359,3.888-2.419c1.067-1.06,1.885-2.353,2.448-3.882
		c0.563-1.527,0.847-3.256,0.847-5.183c0-1.948-0.275-3.692-0.828-5.233s-1.355-2.846-2.412-3.918
		c-1.057-1.07-2.353-1.89-3.889-2.455c-1.535-0.564-3.275-0.848-5.22-0.848h-6.444L100.373,39.032L100.373,39.032z"/>
	<path fill="#6D6E6E" d="M125.501,39.967h-1.08v-2.916h1.08V39.967z"/>
	<path fill="#6D6E6E" d="M145.986,13.328c0.792,0,1.5,0.023,2.124,0.07c0.624,0.05,1.2,0.127,1.729,0.233
		c0.526,0.108,1.021,0.271,1.477,0.486c0.456,0.215,0.899,0.479,1.332,0.792c0.792,0.574,1.439,1.41,1.943,2.502
		s0.757,2.25,0.757,3.474c0,1.226-0.253,2.384-0.757,3.476c-0.504,1.093-1.151,1.927-1.943,2.503
		c-0.433,0.336-0.882,0.604-1.351,0.81c-0.469,0.204-0.967,0.36-1.494,0.469c-0.527,0.107-1.104,0.188-1.729,0.233
		c-0.625,0.048-1.319,0.072-2.088,0.072h-5.111v11.52h-1.08v-26.64H145.986z M140.873,27.511h5.147c0.744,0,1.41-0.021,1.998-0.071
		c0.587-0.047,1.115-0.133,1.584-0.252c0.468-0.121,0.899-0.271,1.296-0.453c0.396-0.183,0.786-0.416,1.17-0.705
		c0.647-0.483,1.176-1.201,1.584-2.154s0.612-1.938,0.612-2.95c0-1.062-0.204-2.067-0.612-3.021s-0.937-1.672-1.584-2.153
		c-0.384-0.289-0.773-0.522-1.17-0.706c-0.396-0.181-0.828-0.332-1.296-0.452c-0.469-0.12-0.997-0.204-1.584-0.254
		c-0.588-0.048-1.254-0.071-1.998-0.071h-5.147V27.511z"/>
	<path fill="#6D6E6E" d="M159.593,24.561h0.072c0.287-0.695,0.708-1.31,1.26-1.836c0.553-0.527,1.177-0.968,1.872-1.313
		c0.695-0.349,1.435-0.604,2.214-0.774c0.78-0.168,1.555-0.238,2.322-0.216c2.447,0,4.438,0.638,5.977,1.908
		c1.848,1.562,2.771,4.08,2.771,7.562v10.078h-1.009v-10.08c0-1.656-0.21-3.029-0.63-4.121c-0.42-1.094-0.99-1.963-1.71-2.609
		c-0.744-0.672-1.584-1.141-2.521-1.404s-1.896-0.396-2.88-0.396c-2.399,0.05-4.291,0.731-5.671,2.054
		c-1.38,1.319-2.069,3.18-2.069,5.579v10.979h-1.008v-26.64h1.008L159.593,24.561L159.593,24.561z"/>
	<path fill="#6D6E6E" d="M180.292,30.427c0-1.416,0.252-2.735,0.756-3.96c0.504-1.224,1.207-2.285,2.105-3.186
		c0.899-0.9,1.963-1.604,3.188-2.106c1.226-0.504,2.558-0.756,3.996-0.756c1.439,0,2.771,0.252,3.996,0.756
		c1.226,0.505,2.285,1.206,3.187,2.106c0.899,0.898,1.604,1.962,2.104,3.186c0.504,1.225,0.756,2.544,0.756,3.96
		c0,1.44-0.252,2.769-0.756,3.979s-1.205,2.268-2.104,3.168c-0.898,0.898-1.961,1.602-3.187,2.105
		c-1.225,0.502-2.557,0.756-3.996,0.756c-1.438,0-2.771-0.252-3.996-0.756c-1.225-0.506-2.287-1.207-3.188-2.105
		c-0.898-0.9-1.603-1.956-2.105-3.168C180.545,33.193,180.292,31.868,180.292,30.427z M181.3,30.427
		c0,1.298,0.229,2.496,0.686,3.601s1.092,2.063,1.909,2.882c0.813,0.815,1.77,1.452,2.86,1.907c1.093,0.455,2.285,0.685,3.582,0.685
		c1.295,0,2.49-0.229,3.582-0.685s2.045-1.092,2.861-1.907c0.815-0.816,1.451-1.776,1.908-2.882
		c0.455-1.104,0.684-2.303,0.684-3.601c0-1.296-0.229-2.495-0.684-3.6c-0.457-1.104-1.093-2.063-1.908-2.88
		c-0.816-0.817-1.771-1.452-2.861-1.908s-2.287-0.686-3.582-0.686c-1.297,0-2.489,0.229-3.582,0.686
		c-1.094,0.456-2.047,1.092-2.86,1.908c-0.816,0.814-1.453,1.775-1.909,2.88S181.3,29.131,181.3,30.427z"/>
	<path fill="#6D6E6E" d="M206.357,13.328h1.008v7.561h4.896v0.938h-4.896v18.145h-1.008V21.825h-4.213v-0.937h4.213V13.328z"/>
	<path fill="#6D6E6E" d="M214.025,30.427c0-1.416,0.252-2.735,0.756-3.96c0.504-1.224,1.205-2.285,2.104-3.186
		c0.9-0.901,1.962-1.604,3.187-2.106c1.225-0.504,2.557-0.756,3.996-0.756c1.438,0,2.771,0.252,3.996,0.756
		c1.225,0.505,2.285,1.206,3.188,2.106c0.898,0.898,1.603,1.962,2.105,3.186c0.502,1.225,0.756,2.544,0.756,3.96
		c0,1.44-0.252,2.769-0.756,3.979s-1.207,2.268-2.105,3.168c-0.899,0.898-1.963,1.602-3.188,2.105
		c-1.226,0.502-2.558,0.756-3.996,0.756c-1.439,0-2.771-0.252-3.996-0.756c-1.225-0.506-2.285-1.207-3.187-2.105
		c-0.899-0.9-1.602-1.956-2.104-3.168C214.278,33.193,214.025,31.868,214.025,30.427z M215.032,30.427
		c0,1.298,0.229,2.496,0.684,3.601s1.093,2.063,1.908,2.882c0.814,0.815,1.771,1.452,2.861,1.907
		c1.092,0.455,2.287,0.685,3.582,0.685c1.297,0,2.49-0.229,3.582-0.685s2.047-1.092,2.86-1.907c0.816-0.816,1.453-1.776,1.908-2.882
		c0.457-1.104,0.687-2.303,0.687-3.601c0-1.296-0.229-2.495-0.687-3.6c-0.455-1.104-1.092-2.063-1.908-2.88
		c-0.813-0.816-1.77-1.452-2.86-1.908s-2.285-0.686-3.582-0.686c-1.295,0-2.49,0.229-3.582,0.686s-2.047,1.092-2.861,1.908
		c-0.815,0.814-1.453,1.775-1.908,2.88S215.032,29.131,215.032,30.427z"/>
	<path fill="#6D6E6E" d="M239.224,42.234c0.239,0.385,0.541,0.841,0.899,1.369c0.359,0.526,0.887,1.056,1.584,1.584
		c0.887,0.694,1.83,1.198,2.826,1.513c0.996,0.312,1.926,0.468,2.789,0.468c1.104,0,2.188-0.216,3.258-0.646
		c1.068-0.434,2.01-1.045,2.826-1.836c0.815-0.793,1.477-1.752,1.979-2.881s0.757-2.389,0.757-3.779v-2.81h-0.107
		c-0.816,1.634-1.979,2.91-3.492,3.834c-1.512,0.925-3.289,1.388-5.328,1.388c-1.584,0-3.006-0.282-4.266-0.848
		c-1.262-0.563-2.328-1.308-3.205-2.23c-0.875-0.924-1.541-1.985-1.998-3.188c-0.455-1.199-0.684-2.447-0.684-3.744
		c0-1.318,0.233-2.578,0.701-3.779c0.469-1.198,1.141-2.263,2.018-3.187c0.875-0.924,1.943-1.662,3.203-2.214
		s2.67-0.828,4.229-0.828c1.152,0,2.22,0.162,3.203,0.486c0.984,0.322,1.854,0.736,2.609,1.24c0.758,0.504,1.393,1.074,1.908,1.711
		c0.515,0.637,0.895,1.267,1.135,1.891h0.07v-4.859h1.008v16.955c0,1.32-0.174,2.496-0.521,3.528
		c-0.35,1.03-0.799,1.926-1.352,2.683c-0.553,0.756-1.176,1.393-1.871,1.907c-0.697,0.517-1.404,0.937-2.123,1.261
		c-0.723,0.323-1.418,0.553-2.09,0.686c-0.672,0.131-1.248,0.197-1.729,0.197c-0.961,0-1.907-0.127-2.844-0.379
		c-0.938-0.252-1.824-0.631-2.664-1.135s-1.596-1.121-2.27-1.854c-0.672-0.731-1.211-1.565-1.619-2.502L239.224,42.234
		L239.224,42.234z M256.25,30.427c0-1.296-0.231-2.502-0.701-3.616c-0.469-1.117-1.104-2.076-1.907-2.881
		c-0.805-0.805-1.759-1.435-2.861-1.891c-1.104-0.456-2.291-0.686-3.563-0.686c-1.271,0-2.461,0.224-3.563,0.666
		c-1.104,0.443-2.07,1.063-2.898,1.854s-1.479,1.746-1.961,2.86c-0.479,1.117-0.721,2.348-0.721,3.689c0,1.08,0.191,2.16,0.576,3.24
		s0.959,2.052,1.729,2.916c0.769,0.863,1.729,1.564,2.879,2.105c1.152,0.539,2.509,0.811,4.068,0.811c1.32,0,2.525-0.24,3.617-0.721
		c1.094-0.479,2.035-1.135,2.826-1.963c0.793-0.826,1.403-1.793,1.836-2.896C256.035,32.816,256.25,31.65,256.25,30.427z"/>
	<path fill="#6D6E6E" d="M263.74,24.343h0.072c0.432-0.888,0.94-1.59,1.528-2.104c0.588-0.516,1.193-0.905,1.818-1.17
		c0.623-0.266,1.229-0.434,1.816-0.504c0.587-0.071,1.086-0.119,1.493-0.146v0.937c-0.575,0.023-1.2,0.098-1.873,0.218
		c-0.672,0.12-1.438,0.493-2.303,1.118c-0.576,0.505-1.033,1.026-1.369,1.567s-0.594,1.101-0.772,1.679
		c-0.179,0.576-0.293,1.172-0.342,1.785c-0.05,0.611-0.072,1.243-0.072,1.894v10.353h-1.008v-19.08h1.008v3.454H263.74z"/>
	<path fill="#6D6E6E" d="M292.25,39.967h-1.008v-4.752h-0.072c-0.84,1.635-2.016,2.91-3.527,3.834
		c-1.512,0.926-3.289,1.387-5.327,1.387c-1.562,0-2.965-0.281-4.213-0.847c-1.248-0.563-2.304-1.308-3.168-2.231
		c-0.861-0.922-1.521-1.984-1.979-3.187c-0.455-1.2-0.686-2.446-0.686-3.744c0-1.317,0.233-2.577,0.703-3.778
		c0.467-1.199,1.141-2.264,2.018-3.188c0.875-0.924,1.932-1.662,3.168-2.214c1.234-0.552,2.619-0.828,4.156-0.828
		c1.151,0,2.221,0.162,3.202,0.486c0.984,0.323,1.855,0.737,2.611,1.241s1.391,1.072,1.908,1.709
		c0.516,0.638,0.893,1.268,1.133,1.892h0.072v-4.858h1.008L292.25,39.967L292.25,39.967z M282.422,39.499
		c1.32,0,2.525-0.24,3.619-0.722c1.092-0.479,2.033-1.133,2.824-1.961c0.793-0.827,1.403-1.793,1.838-2.897
		c0.432-1.104,0.646-2.269,0.646-3.492c0-1.296-0.233-2.502-0.7-3.616c-0.47-1.117-1.104-2.076-1.908-2.881
		c-0.805-0.805-1.76-1.435-2.861-1.891c-1.104-0.456-2.293-0.686-3.563-0.686c-1.246,0-2.418,0.224-3.51,0.666
		c-1.095,0.443-2.048,1.063-2.861,1.854c-0.816,0.792-1.465,1.746-1.943,2.86c-0.479,1.117-0.721,2.348-0.721,3.689
		c0,1.08,0.191,2.16,0.574,3.24c0.387,1.08,0.955,2.052,1.711,2.916c0.758,0.863,1.703,1.564,2.846,2.105
		C279.547,39.23,280.887,39.499,282.422,39.499z"/>
	<path fill="#6D6E6E" d="M298.586,20.889h1.008v4.752h0.072c0.84-1.634,2.016-2.91,3.527-3.834c1.512-0.926,3.286-1.388,5.327-1.388
		c1.562,0,2.964,0.282,4.212,0.847c1.247,0.563,2.305,1.31,3.168,2.231c0.864,0.923,1.522,1.985,1.979,3.187
		c0.455,1.199,0.685,2.447,0.685,3.743c0,1.32-0.232,2.58-0.701,3.78c-0.47,1.2-1.142,2.262-2.017,3.188
		c-0.877,0.924-1.934,1.662-3.168,2.213c-1.235,0.553-2.623,0.828-4.157,0.828c-1.152,0-2.222-0.162-3.205-0.484
		c-0.982-0.324-1.854-0.738-2.609-1.242s-1.393-1.074-1.908-1.71c-0.514-0.636-0.895-1.267-1.133-1.892h-0.072v12.527h-1.008V20.889
		L298.586,20.889z M308.414,21.355c-1.32,0-2.527,0.24-3.619,0.722c-1.092,0.479-2.033,1.134-2.826,1.962
		c-0.791,0.828-1.401,1.794-1.836,2.896c-0.432,1.104-0.646,2.27-0.646,3.491c0,1.298,0.229,2.503,0.686,3.618
		c0.455,1.116,1.092,2.076,1.906,2.88c0.813,0.806,1.774,1.437,2.881,1.892c1.104,0.455,2.291,0.685,3.563,0.685
		c1.248,0,2.418-0.222,3.512-0.666c1.092-0.442,2.045-1.063,2.861-1.854c0.813-0.791,1.463-1.746,1.942-2.86
		c0.479-1.116,0.721-2.347,0.721-3.688c0-1.08-0.19-2.16-0.575-3.24c-0.386-1.08-0.953-2.053-1.711-2.916
		c-0.757-0.863-1.703-1.565-2.845-2.105C311.287,21.625,309.949,21.355,308.414,21.355z"/>
	<path fill="#6D6E6E" d="M323.965,24.561h0.072c0.287-0.695,0.707-1.31,1.26-1.836c0.553-0.527,1.176-0.968,1.871-1.313
		c0.697-0.347,1.436-0.604,2.215-0.774c0.779-0.168,1.555-0.238,2.322-0.216c2.447,0,4.438,0.638,5.977,1.908
		c1.849,1.562,2.771,4.08,2.771,7.562v10.078h-1.008v-10.08c0-1.656-0.211-3.029-0.632-4.121c-0.42-1.094-0.989-1.963-1.711-2.609
		c-0.741-0.672-1.584-1.141-2.52-1.404c-0.938-0.264-1.896-0.396-2.881-0.396c-2.398,0.05-4.289,0.731-5.67,2.054
		c-1.379,1.319-2.068,3.18-2.068,5.579v10.979h-1.01v-26.64h1.01L323.965,24.561L323.965,24.561z"/>
	<path fill="#6D6E6E" d="M350.678,38.564l7.523-17.676h1.188l-11.557,26.746h-1.152l3.386-7.703l-7.562-19.043h1.115L350.678,38.564
		z"/>
</g>
</svg>
