<?xml version="1.0" encoding="utf-8"?>
<!-- Generator: Adobe Illustrator 15.0.0, SVG Export Plug-In . SVG Version: 6.00 Build 0)  -->
<!DOCTYPE svg PUBLIC "-//W3C//DTD SVG 1.1//EN" "http://www.w3.org/Graphics/SVG/1.1/DTD/svg11.dtd">
<svg version="1.1" id="Layer_1" xmlns="http://www.w3.org/2000/svg" xmlns:xlink="http://www.w3.org/1999/xlink" x="0px" y="0px"
	 width="64px" height="64px" viewBox="0 0 64 64" enable-background="new 0 0 64 64" xml:space="preserve">
<g>
	<rect x="32.404" y="8.184" fill="none" width="31.277" height="16.704"/>
	<g>
		<path fill="none" d="M63.346,16.918c-1.334,1.031-3.142,1.657-4.627,2.436c-2.921,1.64-5.707,3.314-8.188,5.496"/>
		<g>
			<path fill="#787878" d="M50.53,24.85c-0.141-0.157,0.329-0.871,1.218-1.784c0.883-0.92,2.193-2.015,3.58-3.022
				c0.693-0.505,1.403-0.991,2.079-1.44c0.169-0.113,0.336-0.222,0.5-0.33l0.123-0.081l0.015-0.01l0.008-0.005
				c0.017-0.009-0.032,0.017,0.038-0.021l0.005-0.003l0.034-0.02l0.065-0.039c0.089-0.052,0.178-0.106,0.263-0.154
				c0.348-0.199,0.671-0.372,0.968-0.531c1.193-0.622,1.908-1.05,2.045-1.135c0.275-0.158,0.599-0.153,0.93-0.039
				c0.328,0.115,0.678,0.34,0.945,0.682c0.266,0.34,0.382,0.747,0.319,1.137c-0.06,0.389-0.297,0.746-0.653,0.949
				c-0.174,0.109-1.149,0.567-2.38,1.029c-0.307,0.119-0.629,0.244-0.949,0.376c-0.083,0.033-0.16,0.067-0.241,0.101l-0.062,0.026
				l-0.03,0.012l-0.004,0.002c0.068-0.037,0.017-0.009,0.031-0.017l-0.009,0.004l-0.016,0.008l-0.13,0.063
				c-0.174,0.083-0.352,0.167-0.53,0.253c-0.718,0.343-1.471,0.706-2.211,1.074c-1.484,0.734-2.917,1.503-3.991,2.098
				C51.411,24.62,50.678,25.016,50.53,24.85z"/>
		</g>
	</g>
	<g>
		<path fill="none" d="M63.041,18.314c-1.126-1.254-2.79-2.196-4.112-3.229c-2.578-2.14-5.017-4.288-7.065-6.88"/>
		<g>
			<path fill="#787878" d="M51.863,8.206c0.174-0.137,0.825,0.384,1.781,1.155c0.949,0.778,2.221,1.793,3.548,2.782
				c0.663,0.496,1.337,0.988,1.981,1.455c0.16,0.117,0.32,0.231,0.477,0.345l0.116,0.084l0.015,0.011l0.007,0.005
				c-0.012-0.011,0.033,0.026-0.027-0.022l0.004,0.002l0.027,0.018l0.056,0.037c0.074,0.048,0.145,0.096,0.219,0.143
				c0.292,0.188,0.587,0.368,0.866,0.541c1.128,0.677,2.005,1.303,2.156,1.441c0.315,0.264,0.482,0.658,0.472,1.051
				c-0.01,0.395-0.197,0.775-0.52,1.062c-0.323,0.288-0.708,0.446-1.052,0.501c-0.348,0.053-0.665-0.001-0.908-0.207
				c-0.118-0.107-0.744-0.657-1.808-1.484c-0.264-0.209-0.551-0.438-0.854-0.696c-0.076-0.063-0.154-0.131-0.231-0.198L58.13,16.18
				l-0.03-0.026l-0.003-0.003c-0.063-0.051-0.02-0.016-0.035-0.028l-0.007-0.006l-0.013-0.013l-0.105-0.101
				c-0.143-0.136-0.287-0.273-0.433-0.414c-0.585-0.563-1.195-1.169-1.785-1.792c-1.185-1.24-2.277-2.554-2.979-3.617
				C52.03,9.122,51.697,8.335,51.863,8.206z"/>
		</g>
	</g>
	<g>
		<g>
			<path fill="none" d="M60.022,17.028c-9.187,0.052-18.431,0.104-27.618,0.157"/>
			<g>
				<path fill="#787878" d="M32.404,17.185c-0.008-1.418,23.859-2.703,25.191-2.711c1.332-0.007,2.419,1.136,2.427,2.554
					c0.008,1.418-1.065,2.574-2.397,2.581C56.293,19.617,32.413,18.604,32.404,17.185z"/>
			</g>
		</g>
	</g>
</g>
<g>
	<rect x="0.319" y="8.184" fill="none" width="31.277" height="16.704"/>
	<g>
		<path fill="none" d="M0.655,16.918c1.334,1.031,3.142,1.657,4.627,2.436c2.921,1.64,5.707,3.314,8.188,5.496"/>
		<g>
			<path fill="#787878" d="M13.47,24.85c0.141-0.157-0.329-0.871-1.218-1.784c-0.883-0.92-2.193-2.015-3.58-3.022
				c-0.693-0.505-1.403-0.991-2.079-1.44c-0.169-0.113-0.336-0.222-0.5-0.33L5.97,18.192l-0.015-0.01l-0.008-0.005
				c-0.017-0.009,0.032,0.017-0.038-0.021l-0.005-0.003l-0.034-0.02l-0.065-0.039c-0.089-0.052-0.178-0.106-0.263-0.154
				c-0.348-0.199-0.671-0.372-0.968-0.531c-1.193-0.622-1.908-1.05-2.045-1.135c-0.275-0.158-0.599-0.153-0.93-0.039
				c-0.328,0.115-0.678,0.34-0.945,0.682c-0.266,0.34-0.382,0.747-0.319,1.137c0.06,0.389,0.297,0.746,0.653,0.949
				c0.174,0.109,1.149,0.567,2.38,1.029c0.307,0.119,0.629,0.244,0.949,0.376c0.083,0.033,0.16,0.067,0.241,0.101l0.062,0.026
				l0.03,0.012l0.004,0.002c-0.068-0.037-0.017-0.009-0.031-0.017l0.009,0.004l0.016,0.008l0.13,0.063
				c0.174,0.083,0.352,0.167,0.53,0.253c0.718,0.343,1.471,0.706,2.211,1.074c1.484,0.734,2.917,1.503,3.991,2.098
				C12.589,24.62,13.323,25.016,13.47,24.85z"/>
		</g>
	</g>
	<g>
		<path fill="none" d="M0.959,18.314c1.126-1.254,2.79-2.196,4.112-3.229c2.578-2.14,5.017-4.288,7.065-6.88"/>
		<g>
			<path fill="#787878" d="M12.137,8.206c-0.174-0.137-0.825,0.384-1.781,1.155c-0.949,0.778-2.221,1.793-3.548,2.782
				c-0.663,0.496-1.337,0.988-1.981,1.455c-0.16,0.117-0.32,0.231-0.477,0.345l-0.116,0.084l-0.015,0.011l-0.007,0.005
				c0.012-0.011-0.033,0.026,0.027-0.022l-0.004,0.002l-0.027,0.018l-0.056,0.037c-0.074,0.048-0.145,0.096-0.219,0.143
				c-0.292,0.188-0.587,0.368-0.866,0.541c-1.128,0.677-2.005,1.303-2.156,1.441c-0.315,0.264-0.482,0.658-0.472,1.051
				c0.01,0.395,0.197,0.775,0.52,1.062c0.323,0.288,0.708,0.446,1.052,0.501c0.348,0.053,0.665-0.001,0.908-0.207
				c0.118-0.107,0.744-0.657,1.808-1.484c0.264-0.209,0.551-0.438,0.854-0.696c0.076-0.063,0.154-0.131,0.231-0.198l0.058-0.051
				l0.03-0.026l0.003-0.003c0.063-0.051,0.02-0.016,0.035-0.028l0.007-0.006l0.013-0.013l0.105-0.101
				c0.143-0.136,0.287-0.273,0.433-0.414c0.585-0.563,1.195-1.169,1.785-1.792c1.185-1.24,2.277-2.554,2.979-3.617
				C11.97,9.122,12.303,8.335,12.137,8.206z"/>
		</g>
	</g>
	<g>
		<g>
			<path fill="none" d="M3.978,17.028c9.187,0.052,18.431,0.104,27.618,0.157"/>
			<g>
				<path fill="#787878" d="M31.596,17.185c0.008-1.418-23.859-2.703-25.191-2.711c-1.332-0.007-2.419,1.136-2.427,2.554
					c-0.008,1.418,1.065,2.574,2.397,2.581C7.708,19.617,31.587,18.604,31.596,17.185z"/>
			</g>
		</g>
	</g>
</g>
<g>
	<rect x="32.404" y="40.352" fill="none" width="31.277" height="16.703"/>
	<g>
		<path fill="none" d="M63.345,49.085c-1.334,1.031-3.141,1.658-4.627,2.436c-2.92,1.641-5.707,3.314-8.188,5.496"/>
		<g>
			<path fill="#ED2333" d="M50.53,57.017c-0.141-0.157,0.328-0.871,1.217-1.784c0.883-0.92,2.193-2.015,3.58-3.022
				c0.693-0.505,1.404-0.991,2.08-1.44c0.168-0.112,0.336-0.222,0.5-0.329l0.123-0.081l0.014-0.01l0.008-0.005
				c0.018-0.01-0.031,0.018,0.039-0.021l0.004-0.002l0.035-0.021l0.064-0.039c0.09-0.052,0.178-0.106,0.264-0.153
				c0.348-0.199,0.67-0.373,0.967-0.531c1.193-0.622,1.908-1.051,2.045-1.135c0.275-0.158,0.6-0.153,0.93-0.039
				c0.328,0.115,0.678,0.34,0.945,0.682c0.266,0.34,0.383,0.748,0.32,1.138c-0.061,0.389-0.297,0.746-0.654,0.949
				c-0.174,0.108-1.148,0.567-2.379,1.029c-0.307,0.119-0.629,0.243-0.949,0.376c-0.084,0.033-0.16,0.067-0.242,0.102l-0.061,0.025
				l-0.031,0.013l-0.004,0.002c0.068-0.037,0.018-0.009,0.031-0.017l-0.008,0.004l-0.016,0.008l-0.131,0.063
				c-0.174,0.082-0.352,0.166-0.529,0.252c-0.719,0.344-1.471,0.707-2.211,1.074c-1.484,0.734-2.918,1.504-3.992,2.099
				C51.411,56.786,50.677,57.183,50.53,57.017z"/>
		</g>
	</g>
	<g>
		<path fill="none" d="M63.04,50.481c-1.125-1.254-2.789-2.195-4.111-3.229c-2.578-2.14-5.018-4.288-7.066-6.88"/>
		<g>
			<path fill="#ED2333" d="M51.862,40.373c0.174-0.137,0.826,0.385,1.781,1.154c0.949,0.779,2.221,1.794,3.549,2.782
				c0.662,0.496,1.336,0.988,1.98,1.455c0.16,0.117,0.32,0.231,0.477,0.345l0.117,0.085l0.014,0.01l0.008,0.006
				c-0.012-0.011,0.033,0.026-0.027-0.022l0.004,0.002l0.027,0.019l0.055,0.036c0.074,0.048,0.145,0.097,0.219,0.144
				c0.293,0.188,0.588,0.367,0.867,0.54c1.127,0.677,2.004,1.304,2.156,1.441c0.314,0.265,0.482,0.657,0.471,1.051
				c-0.01,0.396-0.197,0.774-0.52,1.062c-0.322,0.288-0.707,0.446-1.051,0.501c-0.348,0.053-0.666-0.001-0.908-0.206
				c-0.119-0.107-0.744-0.657-1.809-1.484c-0.264-0.21-0.551-0.438-0.854-0.696c-0.076-0.063-0.154-0.132-0.232-0.198l-0.057-0.051
				l-0.031-0.025l-0.002-0.004c-0.064-0.051-0.02-0.016-0.035-0.027l-0.008-0.006l-0.012-0.014l-0.105-0.101
				c-0.143-0.136-0.287-0.272-0.434-0.414c-0.584-0.563-1.195-1.169-1.785-1.792c-1.184-1.24-2.277-2.554-2.979-3.616
				C52.03,41.289,51.696,40.502,51.862,40.373z"/>
		</g>
	</g>
	<g>
		<g>
			<path fill="none" d="M60.022,49.195c-9.188,0.052-18.432,0.104-27.619,0.157"/>
			<g>
				<path fill="#ED2333" d="M32.404,49.353c-0.008-1.418,23.859-2.703,25.191-2.711s2.42,1.135,2.428,2.554
					c0.008,1.418-1.066,2.573-2.398,2.581S32.412,50.771,32.404,49.353z"/>
			</g>
		</g>
	</g>
</g>
<g>
	<rect x="0.318" y="40.352" fill="none" width="31.277" height="16.703"/>
	<g>
		<path fill="none" d="M0.654,49.085c1.334,1.031,3.142,1.658,4.627,2.436c2.921,1.641,5.707,3.314,8.188,5.496"/>
		<g>
			<path fill="#ED2333" d="M13.47,57.017c0.141-0.157-0.329-0.871-1.218-1.784c-0.883-0.92-2.193-2.015-3.58-3.022
				c-0.693-0.505-1.403-0.991-2.079-1.44c-0.169-0.112-0.336-0.222-0.5-0.329L5.97,50.359l-0.015-0.01l-0.008-0.005
				c-0.017-0.01,0.032,0.018-0.038-0.021l-0.005-0.002L5.87,50.301l-0.065-0.039c-0.089-0.052-0.178-0.106-0.263-0.153
				c-0.348-0.199-0.671-0.373-0.968-0.531c-1.193-0.622-1.908-1.051-2.045-1.135c-0.275-0.158-0.599-0.153-0.93-0.039
				c-0.328,0.115-0.678,0.34-0.945,0.682c-0.266,0.34-0.382,0.748-0.319,1.138c0.06,0.389,0.297,0.746,0.653,0.949
				c0.174,0.108,1.149,0.567,2.38,1.029c0.307,0.119,0.629,0.243,0.949,0.376c0.083,0.033,0.16,0.067,0.241,0.102l0.062,0.025
				l0.03,0.013l0.004,0.002c-0.068-0.037-0.017-0.009-0.031-0.017l0.009,0.004l0.016,0.008l0.13,0.063
				c0.174,0.082,0.352,0.166,0.53,0.252c0.718,0.344,1.471,0.707,2.211,1.074c1.484,0.734,2.917,1.504,3.991,2.099
				C12.589,56.786,13.322,57.183,13.47,57.017z"/>
		</g>
	</g>
	<g>
		<path fill="none" d="M0.959,50.481c1.126-1.254,2.79-2.195,4.112-3.229c2.578-2.14,5.017-4.288,7.065-6.88"/>
		<g>
			<path fill="#ED2333" d="M12.137,40.373c-0.174-0.137-0.825,0.385-1.781,1.154c-0.949,0.779-2.221,1.794-3.548,2.782
				c-0.663,0.496-1.337,0.988-1.981,1.455c-0.16,0.117-0.32,0.231-0.477,0.345l-0.116,0.085l-0.015,0.01L4.212,46.21
				c0.012-0.011-0.033,0.026,0.027-0.022l-0.004,0.002l-0.027,0.019l-0.056,0.036c-0.074,0.048-0.145,0.097-0.219,0.144
				c-0.292,0.188-0.587,0.367-0.866,0.54c-1.128,0.677-2.005,1.304-2.156,1.441c-0.315,0.265-0.482,0.657-0.472,1.051
				c0.01,0.396,0.197,0.774,0.52,1.062c0.323,0.288,0.708,0.446,1.052,0.501c0.348,0.053,0.665-0.001,0.908-0.206
				c0.118-0.107,0.744-0.657,1.808-1.484c0.264-0.21,0.551-0.438,0.854-0.696c0.076-0.063,0.154-0.132,0.231-0.198l0.058-0.051
				l0.03-0.025l0.003-0.004c0.063-0.051,0.02-0.016,0.035-0.027l0.007-0.006l0.013-0.014l0.105-0.101
				c0.143-0.136,0.287-0.272,0.433-0.414c0.585-0.563,1.195-1.169,1.785-1.792c1.185-1.24,2.277-2.554,2.979-3.616
				C11.97,41.289,12.303,40.502,12.137,40.373z"/>
		</g>
	</g>
	<g>
		<g>
			<path fill="none" d="M3.978,49.195c9.187,0.052,18.431,0.104,27.618,0.157"/>
			<g>
				<path fill="#ED2333" d="M31.596,49.353c0.008-1.418-23.859-2.703-25.191-2.711s-2.419,1.135-2.427,2.554
					c-0.008,1.418,1.065,2.573,2.397,2.581S31.587,50.771,31.596,49.353z"/>
			</g>
		</g>
	</g>
</g>
</svg>
