<?xml version="1.0" encoding="utf-8"?>
<!-- Generator: Adobe Illustrator 15.0.0, SVG Export Plug-In . SVG Version: 6.00 Build 0)  -->
<!DOCTYPE svg PUBLIC "-//W3C//DTD SVG 1.1//EN" "http://www.w3.org/Graphics/SVG/1.1/DTD/svg11.dtd">
<svg version="1.1" id="Layer_1" xmlns="http://www.w3.org/2000/svg" xmlns:xlink="http://www.w3.org/1999/xlink" x="0px" y="0px"
	 width="64px" height="64px" viewBox="0 0 64 64" enable-background="new 0 0 64 64" xml:space="preserve">
<g>
	<g>
		<path fill-rule="evenodd" clip-rule="evenodd" fill="#787878" d="M52.14,16.971c-1.249,0.256-3.127,2.856-4.292,3.259
			c4.925-0.813,10.931-3.594,15.967-1.63c-4.219-3.363-11.147-7.617-16.896-8.418c1.355,0.403,4.266,3.827,5.517,4.384
			c-7.013-0.663-13.252-0.608-20.041,0.475"/>
	</g>
</g>
<g>
	<g>
		<path fill-rule="evenodd" clip-rule="evenodd" fill="#787878" d="M11.86,16.971c1.249,0.256,3.127,2.856,4.292,3.259
			c-4.925-0.813-10.931-3.594-15.967-1.63c4.219-3.363,11.147-7.617,16.896-8.418c-1.355,0.403-4.266,3.827-5.517,4.384
			c7.013-0.663,13.252-0.608,20.041,0.475"/>
	</g>
</g>
<g>
	<g>
		<path fill-rule="evenodd" clip-rule="evenodd" fill="#ED2333" d="M52.14,48.971c-1.249,0.257-3.127,2.856-4.292,3.26
			c4.925-0.813,10.931-3.594,15.967-1.631c-4.219-3.362-11.147-7.617-16.896-8.418c1.355,0.403,4.266,3.826,5.517,4.385
			c-7.013-0.664-13.252-0.609-20.041,0.475"/>
	</g>
</g>
<g>
	<g>
		<path fill-rule="evenodd" clip-rule="evenodd" fill="#ED2333" d="M11.86,48.971c1.249,0.257,3.127,2.856,4.292,3.26
			C11.228,51.418,5.222,48.637,0.186,50.6c4.219-3.362,11.147-7.617,16.896-8.418c-1.355,0.403-4.266,3.826-5.517,4.385
			c7.013-0.664,13.252-0.609,20.041,0.475"/>
	</g>
</g>
</svg>
