<?xml version="1.0" encoding="utf-8"?>
<!-- Generator: Adobe Illustrator 15.0.0, SVG Export Plug-In . SVG Version: 6.00 Build 0)  -->
<!DOCTYPE svg PUBLIC "-//W3C//DTD SVG 1.1//EN" "http://www.w3.org/Graphics/SVG/1.1/DTD/svg11.dtd">
<svg version="1.1" id="Layer_1" xmlns="http://www.w3.org/2000/svg" xmlns:xlink="http://www.w3.org/1999/xlink" x="0px" y="0px"
	 width="212.713px" height="216px" viewBox="0 0 212.713 216" enable-background="new 0 0 212.713 216" xml:space="preserve">
<g>
	<path fill="#C9EBFC" d="M4.907,48.537C3.001,18.39,65.202-10.953,65.202,21.205c-34.972-0.402-17.286,20.097,2.01,12.862
		c11.884-4.456,37.781-42.206,49.438-22.107c-17.683,32.559,13.671,26.931,16.886,19.696c9.645-17.284,18.571-27.666,29.746-14.471
		c-10.854,17.285,45.023,15.278,40.6,43.011C162.477,95.969,31.436,101.997,4.907,48.537z"/>
	<text transform="matrix(1 0 0 1 27.8179 63.8115)" fill="#E2CCD2" font-family="'MyriadPro-Regular'" font-size="40.0593">Press me!</text>
</g>
<g>
	<path fill="#B8D3DD" d="M4.408,156.883c-1.906-30.147,60.295-59.492,60.295-27.335c-34.973-0.401-17.286,20.098,2.009,12.863
		c11.884-4.459,37.782-42.207,49.439-22.106c-17.684,32.56,13.668,26.93,16.883,19.695c9.648-17.284,18.575-27.669,29.745-14.475
		c-10.851,17.284,45.024,15.278,40.601,43.015C161.976,204.311,30.937,210.343,4.408,156.883z"/>
	<text transform="matrix(1 0 0 1 55.0557 179.0117)" fill="#EFDFE5" font-family="'MyriadPro-Regular'" font-size="43.7011">Now!</text>
</g>
</svg>
