<?xml version="1.0" encoding="utf-8"?>
<!-- Generator: Adobe Illustrator 15.0.0, SVG Export Plug-In . SVG Version: 6.00 Build 0)  -->
<!DOCTYPE svg PUBLIC "-//W3C//DTD SVG 1.1//EN" "http://www.w3.org/Graphics/SVG/1.1/DTD/svg11.dtd">
<svg version="1.1" id="Layer_1" xmlns="http://www.w3.org/2000/svg" xmlns:xlink="http://www.w3.org/1999/xlink" x="0px" y="0px"
	 width="577px" height="143.5px" viewBox="0 0 577 143.5" enable-background="new 0 0 577 143.5" xml:space="preserve">
<path fill="#FFFFFF" stroke="#ED1D38" stroke-miterlimit="10" d="M79.703,39.813c65.484-87.615,103.176,31.637,2.365,94.897
	C-26.429,76.334,0.399-25.9,79.703,39.813z"/>
<path fill="#FFFFFF" stroke="#ED1D38" stroke-miterlimit="10" d="M510.577,39.823c65.484-87.615,103.176,31.637,2.354,94.887
	C404.445,76.344,431.263-25.89,510.577,39.823z"/>
<path fill="#ED317D" stroke="#ED1969" stroke-miterlimit="10" d="M514.553,54.508c49.496-66.195,77.979,23.916,1.796,71.704
	C434.362,82.104,454.632,4.859,514.553,54.508z"/>
<path fill="#FFFFFF" stroke="#DD3794" stroke-miterlimit="10" d="M513.786,73.649c29.764-39.815,46.89,14.367,1.073,43.123
	C465.56,90.251,477.748,43.799,513.786,73.649z"/>
<path fill="#ED2B90" d="M513.392,87.863c19.459-26.04,30.673,9.396,0.701,28.187C481.854,98.704,489.826,68.328,513.392,87.863z"/>
<g>
	<path fill="#FFFFFF" stroke="#ED1D38" stroke-miterlimit="10" d="M367.051,39.812c65.484-87.604,103.176,31.625,2.354,94.896
		C260.918,76.32,287.736-25.903,367.051,39.812z"/>
	<path fill="#ED1969" stroke="#ED1969" stroke-miterlimit="10" d="M371.025,54.507c49.497-66.207,77.979,23.894,1.796,71.704
		C290.835,82.102,311.104,4.846,371.025,54.507z"/>
	<path fill="#FFFFFF" stroke="#DD3794" stroke-miterlimit="10" d="M370.259,73.648c29.764-39.816,46.891,14.367,1.073,43.101
		C322.033,90.228,334.221,43.775,370.259,73.648z"/>
</g>
<g>
	<path fill="#FFFFFF" stroke="#ED1D38" stroke-miterlimit="10" d="M223.077,39.813c65.484-87.615,103.176,31.625,2.354,94.897
		C116.944,76.323,143.773-25.9,223.077,39.813z"/>
	<path fill="#ED1969" stroke="#ED1969" stroke-miterlimit="10" d="M227.052,54.51c49.497-66.207,77.979,23.894,1.796,71.704
		C146.861,82.104,167.131,4.849,227.052,54.51z"/>
</g>
</svg>
