<?xml version="1.0" encoding="utf-8"?>
<!-- Generator: Adobe Illustrator 15.0.0, SVG Export Plug-In . SVG Version: 6.00 Build 0)  -->
<!DOCTYPE svg PUBLIC "-//W3C//DTD SVG 1.1//EN" "http://www.w3.org/Graphics/SVG/1.1/DTD/svg11.dtd">
<svg version="1.1" id="Layer_1" xmlns="http://www.w3.org/2000/svg" xmlns:xlink="http://www.w3.org/1999/xlink" x="0px" y="0px"
	 width="64px" height="96px" viewBox="0 0 64 96" enable-background="new 0 0 64 96" xml:space="preserve">
<path fill="#777777" d="M20.144,11.32h-3.821V8.813c0-0.94,0.624-1.162,1.063-1.162c0.438,0,2.698,0,2.698,0V3.513l-3.717-0.014
	c-4.123,0-5.062,3.087-5.062,5.063v2.759H8.917v4.265h2.385c0,5.475,0,12.07,0,12.07h5.02c0,0,0-6.661,0-12.07h3.383L20.144,11.32z"
	/>
<path fill="#777777" d="M29.061,40.123c-0.994,0.442-2.063,0.74-3.183,0.873c1.144-0.686,2.021-1.771,2.436-3.067
	c-1.071,0.636-2.258,1.097-3.521,1.345c-1.009-1.077-2.449-1.75-4.043-1.75c-3.061,0-5.544,2.481-5.544,5.542
	c0,0.435,0.049,0.857,0.144,1.263c-4.605-0.23-8.689-2.438-11.423-5.791c-0.478,0.818-0.75,1.77-0.75,2.787
	c0,1.923,0.978,3.619,2.465,4.613c-0.908-0.03-1.763-0.279-2.509-0.693c-0.001,0.023-0.001,0.046-0.001,0.069
	c0,2.685,1.911,4.925,4.446,5.435c-0.465,0.127-0.954,0.195-1.46,0.195c-0.357,0-0.704-0.035-1.042-0.1
	c0.705,2.201,2.753,3.805,5.176,3.848c-1.896,1.486-4.286,2.375-6.882,2.375c-0.447,0-0.888-0.029-1.323-0.08
	c2.453,1.572,5.368,2.49,8.496,2.49c10.193,0,15.768-8.443,15.768-15.769c0-0.239-0.006-0.479-0.017-0.717
	C27.378,42.211,28.319,41.236,29.061,40.123z"/>
<path fill="#777777" d="M23.027,69.727H8.082c-2.598,0-4.71,2.112-4.71,4.708v4.972v9.974c0,2.596,2.112,4.707,4.71,4.707h14.946
	c2.596,0,4.708-2.111,4.708-4.707v-9.974v-4.972C27.736,71.837,25.625,69.727,23.027,69.727z M24.377,72.533h0.539v0.536v3.594
	L20.8,76.675l-0.013-4.128L24.377,72.533z M12.077,79.406c0.781-1.08,2.047-1.788,3.478-1.788c1.431,0,2.696,0.708,3.476,1.788
	c0.508,0.706,0.813,1.567,0.813,2.501c0,2.363-1.923,4.288-4.288,4.288c-2.367,0-4.288-1.925-4.288-4.288
	C11.267,80.975,11.568,80.112,12.077,79.406z M25.362,89.381c0,1.289-1.046,2.335-2.334,2.335H8.082
	c-1.289,0-2.334-1.046-2.334-2.335v-9.975h3.638c-0.316,0.772-0.491,1.616-0.491,2.501c0,3.673,2.989,6.66,6.663,6.66
	c3.674,0,6.662-2.988,6.662-6.66c0-0.885-0.178-1.729-0.491-2.501h3.637v9.975H25.362z"/>
<path fill="#EE2032" d="M52.227,11.32h-3.82V8.813c0-0.94,0.623-1.162,1.063-1.162c0.438,0,2.697,0,2.697,0V3.513l-3.717-0.014
	c-4.123,0-5.063,3.087-5.063,5.063v2.759H41v4.265h2.385c0,5.475,0,12.07,0,12.07h5.02c0,0,0-6.661,0-12.07h3.383L52.227,11.32z"/>
<path fill="#EE2032" d="M60.895,40.123c-0.994,0.442-2.063,0.74-3.184,0.873c1.145-0.686,2.021-1.771,2.437-3.067
	c-1.071,0.636-2.258,1.097-3.521,1.345c-1.01-1.077-2.449-1.75-4.043-1.75c-3.061,0-5.545,2.481-5.545,5.542
	c0,0.435,0.05,0.857,0.145,1.263c-4.605-0.23-8.689-2.438-11.424-5.791c-0.477,0.818-0.749,1.77-0.749,2.787
	c0,1.923,0.978,3.619,2.465,4.613c-0.908-0.03-1.763-0.279-2.509-0.693c-0.002,0.023-0.002,0.046-0.002,0.069
	c0,2.685,1.911,4.925,4.446,5.435c-0.466,0.127-0.954,0.195-1.46,0.195c-0.357,0-0.704-0.035-1.043-0.1
	c0.705,2.201,2.754,3.805,5.176,3.848c-1.896,1.486-4.285,2.375-6.881,2.375c-0.447,0-0.889-0.029-1.323-0.08
	c2.453,1.572,5.368,2.49,8.495,2.49c10.193,0,15.769-8.443,15.769-15.769c0-0.239-0.006-0.479-0.017-0.717
	C59.211,42.211,60.152,41.236,60.895,40.123z"/>
<path fill="#EE2032" d="M54.861,69.727H39.915c-2.599,0-4.71,2.112-4.71,4.708v4.972v9.974c0,2.596,2.111,4.707,4.71,4.707h14.946
	c2.596,0,4.708-2.111,4.708-4.707v-9.974v-4.972C59.569,71.837,57.459,69.727,54.861,69.727z M56.211,72.533h0.539v0.536v3.594
	l-4.117,0.012l-0.013-4.128L56.211,72.533z M43.91,79.406c0.781-1.08,2.047-1.788,3.478-1.788s2.696,0.708,3.476,1.788
	c0.508,0.706,0.813,1.567,0.813,2.501c0,2.363-1.924,4.288-4.288,4.288c-2.366,0-4.288-1.925-4.288-4.288
	C43.1,80.975,43.402,80.112,43.91,79.406z M57.195,89.381c0,1.289-1.047,2.335-2.334,2.335H39.915c-1.288,0-2.335-1.046-2.335-2.335
	v-9.975h3.639c-0.316,0.772-0.491,1.616-0.491,2.501c0,3.673,2.989,6.66,6.663,6.66s6.661-2.988,6.661-6.66
	c0-0.885-0.179-1.729-0.491-2.501h3.637v9.975H57.195z"/>
</svg>
